<svg width="454" height="162" viewBox="0 0 454 162" fill="none" xmlns="http://www.w3.org/2000/svg">
<path fill-rule="evenodd" clip-rule="evenodd" d="M337 162V0H367V162H337Z" fill="black"/>
<path fill-rule="evenodd" clip-rule="evenodd" d="M454 114C454 87.4903 432.51 66 406 66H352V96H406C415.941 96 424 104.059 424 114C424 123.941 415.941 132 406 132H352V162H406C432.51 162 454 140.51 454 114Z" fill="black"/>
<path fill-rule="evenodd" clip-rule="evenodd" d="M117 162V0H87V162H117Z" fill="black"/>
<path fill-rule="evenodd" clip-rule="evenodd" d="M0 114C0 87.4903 21.4903 66 48 66H102V96H48C38.0589 96 30 104.059 30 114C30 123.941 38.0589 132 48 132H102V162H48C21.4903 162 0 140.51 0 114Z" fill="black"/>
<path fill-rule="evenodd" clip-rule="evenodd" d="M152 82V68H182V82C182 106.853 202.147 127 227 127C251.853 127 272 106.853 272 82V68H302V82C302 123.421 268.421 157 227 157C185.579 157 152 123.421 152 82Z" fill="black"/>
<path d="M187 25C187 36.0457 178.046 45 167 45C155.954 45 147 36.0457 147 25C147 13.9543 155.954 5 167 5C178.046 5 187 13.9543 187 25Z" fill="black"/>
<path d="M287 2L309.517 41H264.483L287 2Z" fill="black"/>
</svg>
